PathFileType	4	(X/Y/Z)	/Users/itak/Documents/Research/Walk-IL/dataset/trc/00558_00009.trc
DataRate	CameraRate	NumFrames	NumMarkers	Units	OrigDataRate	OrigDataStartFrame	OrigNumFrames
100.000000	100.000000	4	54	mm	100.000000	228	456
Frame#	Time	RPSI			LPSI			L3			STRN			T10			C7			CLAV			RBAK			LBAK			LSHO			LUPA			LAEL			LAOL			LWTS			LWPS			LFRA			LIFD			LHPS			LHTS			RSHO			RUPA			RAEL			RAOL			RWTS			RWPS			RFRA			RHTS			RHPS			RBHD			LFHD			RFHD			LBHD			LHIP			RHIP			RASI			LASI			LKNE			LTHI			LANK			LTIP			LTOE			LMT1			LMT5			LHEE			RKNE			RTHI			RANK			RTIP			RTOE			RMT1			RMT5			RHEE			RIFD			*53			
		X1	Y1	Z1	X2	Y2	Z2	X3	Y3	Z3	X4	Y4	Z4	X5	Y5	Z5	X6	Y6	Z6	X7	Y7	Z7	X8	Y8	Z8	X9	Y9	Z9	X10	Y10	Z10	X11	Y11	Z11	X12	Y12	Z12	X13	Y13	Z13	X14	Y14	Z14	X15	Y15	Z15	X16	Y16	Z16	X17	Y17	Z17	X18	Y18	Z18	X19	Y19	Z19	X20	Y20	Z20	X21	Y21	Z21	X22	Y22	Z22	X23	Y23	Z23	X24	Y24	Z24	X25	Y25	Z25	X26	Y26	Z26	X27	Y27	Z27	X28	Y28	Z28	X29	Y29	Z29	X30	Y30	Z30	X31	Y31	Z31	X32	Y32	Z32	X33	Y33	Z33	X34	Y34	Z34	X35	Y35	Z35	X36	Y36	Z36	X37	Y37	Z37	X38	Y38	Z38	X39	Y39	Z39	X40	Y40	Z40	X41	Y41	Z41	X42	Y42	Z42	X43	Y43	Z43	X44	Y44	Z44	X45	Y45	Z45	X46	Y46	Z46	X47	Y47	Z47	X48	Y48	Z48	X49	Y49	Z49	X50	Y50	Z50	X51	Y51	Z51	X52	Y52	Z52	X53	Y53	Z53	X54	Y54	Z54	

229	2.28	245.3136291503906	915.0455932617188	283.2273559570312	285.1726684570312	908.686279296875	154.5515899658203	278.638671875	1023.918518066406	211.354248046875	515.8936767578125	1194.0361328125	292.4523315429688	283.6282958984375	1150.908203125	205.5079956054688	345.94580078125	1422.895263671875	245.4984588623047	504.8932495117188	1305.880493164062	294.3313293457031	241.8794555664062	1300.382568359375	294.5173950195312	339.9380187988281	1379.272338867188	142.1304016113281	467.0513000488281	1397.098266601562	109.7254867553711	489.5796203613281	1277.766357421875	24.19028854370117	527.3179931640625	1084.034301757812	-1.604438662528992	437.1421508789062	1036.005493164062	-13.2593412399292	645.19873046875	1002.112060546875	198.99609375	692.7386474609375	949.979248046875	147.2661437988281	582.4600830078125	1040.703247070312	41.16854858398438	732.7182006835938	908.3162841796875	299.3835144042969	725.6761474609375	927.8217163085938	192.3801879882812	709.2732543945312	977.1231079101562	237.3197937011719	343.5743713378906	1379.5712890625	408.4281311035156	292.0577087402344	1322.797485351562	460.9028015136719	201.8609619140625	1055.814819335938	509.531005859375	158.0792388916016	1040.341918945312	466.2814636230469	343.4725036621094	846.0335083007812	532.7522583007812	277.607177734375	823.3545532226562	575.7568359375	206.4273834228516	1000.290344238281	523.0209350585938	376.1572570800781	772.1756591796875	579.9623413085938	305.7501220703125	760.2447509765625	600.1846313476562	429.7309265136719	1594.057373046875	351.5464477539062	612.21435546875	1589.651000976562	252.1988525390625	565.7042846679688	1588.287109375	389.2015991210938	490.1614074707031	1592.9140625	197.4792633056641	453.1568908691406	833.2421264648438	76.73101806640625	340.1555786132812	869.8280639648438	439.2732238769531	432.5796508789062	907.6367797851562	405.5023498535156	509.4173889160156	870.4559936523438	143.2415924072266	613.054443359375	419.7606811523438	175.3157501220703	564.81298828125	578.34814453125	128.5146484375	196.5465240478516	210.1568298339844	55.67360687255859	394.0433044433594	313.9425354003906	109.7285537719727	305.0682067871094	48.65882873535156	140.9210510253906	250.4841918945312	100.3464126586914	162.2623443603516	269.0983276367188	113.1465225219727	59.05857467651367	144.0769348144531	264.0274047851562	97.93257141113281	580.2679443359375	485.9931640625	468.5777587890625	433.5779418945312	744.710205078125	472.6186828613281	436.510498046875	40.91424942016602	360.8171081542969	586.3253173828125	335.721435546875	442.0736083984375	663.477294921875	38.62519073486328	410.4977416992188	616.9437255859375	43.15536117553711	345.5866394042969	551.9218139648438	41.15632247924805	430.8733215332031	408.9293212890625	30.63142204284668	288.3681030273438	377.0727233886719	688.8931884765625	572.2160034179688	nan	nan	nan	
230	2.29	260.6235046386719	915.4329833984375	288.5570678710938	300.4598388671875	907.9190063476562	159.9218292236328	294.2296142578125	1023.73583984375	216.4193725585938	532.8934936523438	1193.197631835938	295.1955871582031	299.3008422851562	1150.761474609375	210.8601531982422	362.9097900390625	1422.600830078125	250.7943420410156	522.1267700195312	1305.039184570312	297.2231140136719	259.023193359375	1300.591186523438	301.3437194824219	355.6776123046875	1378.76806640625	147.7458343505859	482.1567687988281	1396.232299804688	113.1790084838867	501.9038696289062	1276.520751953125	27.17297172546387	535.9210815429688	1081.75146484375	0.1998399496078491	444.292724609375	1035.937133789062	-9.728837966918945	656.1271362304688	992.22314453125	196.7626953125	702.3274536132812	941.5089721679688	142.3943023681641	591.236328125	1036.2705078125	40.90907287597656	743.1722412109375	893.1808471679688	292.18212890625	735.651123046875	917.3365478515625	186.1891174316406	720.3040161132812	965.0824584960938	233.3910980224609	362.9589233398438	1379.1005859375	413.8910827636719	312.7713928222656	1321.907836914062	467.1260375976562	226.2527160644531	1054.156127929688	518.3173828125	181.1459197998047	1038.299072265625	476.4144897460938	370.5805358886719	845.9812622070312	536.5874633789062	306.6354064941406	822.7789916992188	582.20068359375	231.8266906738281	998.7825927734375	531.6281127929688	405.6852722167969	772.3756103515625	582.5435180664062	336.3045349121094	759.9047241210938	605.5357666015625	447.8252258300781	1593.465209960938	356.4275207519531	629.9595336914062	1588.34912109375	256.515625	583.873291015625	1586.894287109375	393.6956176757812	507.7637023925781	1592.376953125	202.1980590820312	468.2809143066406	832.650146484375	81.58436584472656	355.8313293457031	870.1409301757812	444.2478942871094	448.3490295410156	907.3629760742188	409.5701904296875	525.0469970703125	870.4985961914062	147.2362060546875	647.7655639648438	427.9281616210938	184.5786285400391	591.3182373046875	583.2073364257812	134.9655303955078	241.2944946289062	199.837646484375	66.68495941162109	433.6427612304688	313.1954345703125	119.8679962158203	360.2488403320312	48.4183349609375	155.0939178466797	301.9847106933594	96.08316040039062	175.2745056152344	320.2200317382812	108.1828460693359	71.90296173095703	185.2470092773438	250.8798065185547	107.9465484619141	589.9219970703125	482.4736328125	472.4507751464844	447.4069519042969	743.6180419921875	477.16162109375	436.7714538574219	41.46626663208008	360.7491760253906	592.7352905273438	332.3490295410156	444.7350463867188	663.349853515625	38.73992919921875	410.7187194824219	616.8961181640625	43.3054313659668	345.7330322265625	551.9183959960938	41.06782531738281	430.911865234375	409.1377563476562	31.52765464782715	288.3608093261719	407.2395324707031	689.1232299804688	575.0510864257812	nan	nan	nan	
231	2.3	275.8349609375	916.419921875	293.5775451660156	315.871826171875	907.926513671875	165.1002197265625	309.6268920898438	1024.178344726562	221.3651733398438	549.7554931640625	1193.17919921875	297.8071899414062	314.9244995117188	1151.216430664062	216.1951293945312	379.6269836425781	1422.912109375	255.8806762695312	539.164794921875	1305.008544921875	299.8720703125	275.9793395996094	1301.443969726562	308.1194458007812	371.1538391113281	1378.71923828125	153.2957153320312	496.8579406738281	1396.001220703125	116.3331451416016	513.643310546875	1276.037231445312	29.77127838134766	543.90380859375	1080.380126953125	1.276167273521423	450.9150390625	1036.776977539062	-6.660006046295166	666.3806762695312	983.61669921875	193.6564025878906	710.9915771484375	934.0714721679688	136.8489532470703	599.3096923828125	1032.826049804688	39.93767166137695	752.5858154296875	879.8477783203125	284.3851013183594	744.6943969726562	908.0525512695312	179.3236541748047	730.6554565429688	954.4635009765625	228.4819183349609	382.2120666503906	1379.35498046875	419.0766906738281	333.35107421875	1321.876098632812	473.1452331542969	250.22900390625	1053.494262695312	526.7737426757812	203.8178863525391	1037.247680664062	486.2805786132812	397.5358276367188	847.3244018554688	540.18505859375	335.5259399414062	823.3683471679688	588.0861206054688	256.8611450195312	998.3110961914062	539.834716796875	435.08984375	774.0469360351562	584.7914428710938	366.7797241210938	760.7662353515625	610.2376708984375	465.6544189453125	1593.555419921875	361.1303405761719	647.4551391601562	1587.76171875	260.6824645996094	601.7664184570312	1586.157958984375	398.0345458984375	525.1303100585938	1592.594116210938	206.7593688964844	483.583740234375	833.042724609375	86.24787139892578	371.1834716796875	870.7872314453125	449.0007934570312	463.8395385742188	907.5047607421875	413.6621704101562	540.7188110351562	871.2711181640625	151.2485046386719	681.1781616210938	437.4408264160156	193.3143463134766	616.9666137695312	589.28759765625	141.1532897949219	286.7470703125	188.3222961425781	78.35099029541016	472.8798217773438	312.2754821777344	130.0133972167969	416.4252624511719	48.27488327026367	169.2685394287109	354.6778869628906	91.40357971191406	188.5858917236328	372.0575256347656	102.8991012573242	85.02672576904297	227.2451934814453	235.9998474121094	118.8691253662109	598.84326171875	479.1268920898438	475.8911437988281	460.7909240722656	742.7747192382812	481.4205932617188	437.1203308105469	42.13432693481445	360.5704650878906	598.4977416992188	329.2373962402344	447.0222473144531	663.2488403320312	38.81673431396484	410.8790283203125	616.8885498046875	43.39825439453125	345.8389282226562	551.925537109375	40.9727783203125	430.888671875	409.40380859375	32.51929473876953	288.2692565917969	437.5011901855469	690.80126953125	577.3700561523438	nan	nan	nan	
232	2.31	291.004150390625	917.9577026367188	298.1838073730469	331.4656677246094	908.67333984375	169.9629364013672	324.86669921875	1025.234130859375	226.1502075195312	566.4927978515625	1193.940673828125	300.3772583007812	330.5497131347656	1152.266845703125	221.4678955078125	396.1385803222656	1423.831298828125	260.7732238769531	556.0382690429688	1305.750122070312	302.3510131835938	292.76171875	1302.890991210938	314.74267578125	386.4328002929688	1379.143920898438	158.7957763671875	511.2512817382812	1396.3935546875	119.2573165893555	524.8977661132812	1276.3251953125	32.06109619140625	551.3051147460938	1079.963745117188	1.68946897983551	457.0719909667969	1038.5595703125	-4.025619506835938	676.046142578125	976.4778442382812	189.7254638671875	718.6882934570312	927.6878662109375	130.7391662597656	606.7094116210938	1030.410034179688	38.32533264160156	761.1981201171875	868.640625	276.1654968261719	752.785888671875	900.0365600585938	171.9052429199219	740.443603515625	945.4597778320312	222.5930023193359	401.23779296875	1380.293579101562	423.9703674316406	353.6424255371094	1322.649169921875	478.9032592773438	273.7041931152344	1053.781982421875	534.8576049804688	226.0527191162109	1037.106323242188	495.815185546875	424.2370300292969	849.9823608398438	543.5882568359375	364.165283203125	825.0958862304688	593.4712524414062	281.456787109375	998.8203125	547.6143798828125	464.2556457519531	777.1315307617188	586.7542724609375	397.0455322265625	762.8016357421875	614.3529052734375	483.2086181640625	1594.319091796875	365.6374816894531	664.7018432617188	1587.942260742188	264.6973266601562	619.377197265625	1586.13671875	402.2137756347656	542.2665405273438	1593.552612304688	211.1438903808594	499.22998046875	834.408203125	90.76728820800781	386.1627502441406	871.7723388671875	453.4978942871094	479.0171508789062	908.0863037109375	417.8961181640625	556.4730834960938	872.726806640625	155.4223937988281	713.1148071289062	448.025390625	201.4555816650391	641.7598266601562	596.4403076171875	147.1053009033203	332.9457397460938	175.8882598876953	90.66539001464844	511.6695861816406	311.1623840332031	140.1314392089844	473.3172912597656	48.43330001831055	183.2888031005859	408.4012451171875	86.56803894042969	202.0878448486328	424.4978637695312	97.57295227050781	98.31959533691406	270.2018432617188	219.6737976074219	130.7164154052734	607.1707153320312	476.0563049316406	478.8601379394531	473.842041015625	742.2250366210938	485.3727416992188	437.5416870117188	42.93001937866211	360.2976684570312	603.7177734375	326.4682922363281	448.9146118164062	663.1683349609375	38.85982894897461	410.9913940429688	616.9224243164062	43.44984817504883	345.9173889160156	551.951171875	40.8839111328125	430.796142578125	409.7166137695312	33.61648941040039	288.0974426269531	467.724365234375	693.8892211914062	579.2013549804688	nan	nan	nan	
